<svg xmlns="http://www.w3.org/2000/svg" viewBox="0 0 182.55 156.48"><defs><style>.cls-1{fill:#231f20;}</style></defs><g id="Layer_2" data-name="Layer 2"><g id="Layer_1-2" data-name="Layer 1"><path class="cls-1" d="M179.24,156.48c-43.6,0-79.07-35.1-79.07-78.24S135.64,0,179.24,0a3.31,3.31,0,0,1,3.31,3.31V15.22a3.31,3.31,0,0,1-3.31,3.31c-33.31,0-60.41,26.79-60.41,59.71S145.93,138,179.24,138a3.31,3.31,0,0,1,3.31,3.31v11.91A3.31,3.31,0,0,1,179.24,156.48ZM175.94,6.69c-38.43,1.71-69.16,33.15-69.16,71.55s30.73,69.84,69.16,71.55v-5.31c-35.43-1.71-63.72-30.77-63.72-66.24S140.51,13.71,175.94,12Z"/><path class="cls-1" d="M179.24,144.56c-37,0-67-29.75-67-66.32s30.06-66.32,67-66.32a3.31,3.31,0,0,1,3.31,3.3V27.14a3.31,3.31,0,0,1-3.31,3.31c-26.66,0-48.36,21.44-48.36,47.79S152.58,126,179.24,126a3.31,3.31,0,0,1,3.31,3.31v11.92A3.31,3.31,0,0,1,179.24,144.56Zm-3.3-125.94c-31.78,1.7-57.11,27.79-57.11,59.62s25.33,57.92,57.11,59.62v-5.31c-28.78-1.7-51.67-25.41-51.67-54.31s22.89-52.61,51.67-54.31Z"/><path class="cls-1" d="M179.24,132.64c-30.31,0-55-24.4-55-54.4s24.66-54.4,55-54.4a3.31,3.31,0,0,1,3.31,3.3V39.06a3.31,3.31,0,0,1-3.31,3.31c-20,0-36.31,16.09-36.31,35.87s16.29,35.87,36.31,35.87a3.31,3.31,0,0,1,3.31,3.31v11.92A3.31,3.31,0,0,1,179.24,132.64Zm-3.3-102.08C150.81,32.25,130.88,53,130.88,78.24s19.93,46,45.06,47.68V120.6a42.45,42.45,0,0,1,0-84.72Z"/><path class="cls-1" d="M179.24,120.73c-23.67,0-42.92-19.06-42.92-42.49s19.25-42.49,42.92-42.49a3.31,3.31,0,0,1,3.31,3.31V51a3.31,3.31,0,0,1-3.31,3.31,24,24,0,1,0,0,47.9,3.31,3.31,0,0,1,3.31,3.31v11.92A3.31,3.31,0,0,1,179.24,120.73Zm-3.3-78.22a35.84,35.84,0,0,0,0,71.45v-5.33a30.53,30.53,0,0,1,0-60.78Z"/><path class="cls-1" d="M3.31,156.48A3.31,3.31,0,0,1,0,153.17V141.26A3.31,3.31,0,0,1,3.31,138c33.31,0,60.41-26.79,60.41-59.71S36.62,18.53,3.31,18.53A3.31,3.31,0,0,1,0,15.22V3.31A3.31,3.31,0,0,1,3.31,0c43.6,0,79.07,35.1,79.07,78.24S46.91,156.48,3.31,156.48Zm3.3-12v5.31C45,148.08,75.77,116.64,75.77,78.24S45,8.4,6.61,6.69V12C42,13.71,70.33,42.77,70.33,78.24S42,142.77,6.61,144.48Z"/><path class="cls-1" d="M3.31,144.56A3.31,3.31,0,0,1,0,141.26V129.34A3.31,3.31,0,0,1,3.31,126C30,126,51.67,104.59,51.67,78.24S30,30.45,3.31,30.45A3.31,3.31,0,0,1,0,27.14V15.22a3.31,3.31,0,0,1,3.31-3.3c37,0,67,29.75,67,66.32S40.27,144.56,3.31,144.56Zm3.3-12v5.31c31.78-1.7,57.11-27.79,57.11-59.62S38.39,20.32,6.61,18.62v5.31c28.78,1.7,51.67,25.41,51.67,54.31S35.39,130.85,6.61,132.55Z"/><path class="cls-1" d="M3.31,132.64A3.31,3.31,0,0,1,0,129.34V117.42a3.31,3.31,0,0,1,3.31-3.31c20,0,36.31-16.09,36.31-35.87S23.33,42.37,3.31,42.37A3.31,3.31,0,0,1,0,39.06V27.14a3.31,3.31,0,0,1,3.31-3.3c30.31,0,55,24.4,55,54.4S33.62,132.64,3.31,132.64Zm3.3-12v5.32c25.13-1.69,45.06-22.43,45.06-47.68s-19.93-46-45.06-47.68v5.32a42.45,42.45,0,0,1,0,84.72Z"/><path class="cls-1" d="M3.31,120.73A3.31,3.31,0,0,1,0,117.42V105.5a3.31,3.31,0,0,1,3.31-3.31,24,24,0,1,0,0-47.9A3.31,3.31,0,0,1,0,51V39.06a3.31,3.31,0,0,1,3.31-3.31c23.66,0,42.92,19.06,42.92,42.49S27,120.73,3.31,120.73Zm3.3-12.1V114a35.84,35.84,0,0,0,0-71.45v5.34a30.53,30.53,0,0,1,0,60.78Z"/></g></g></svg>